<?xml version="1.0" encoding="UTF-8" standalone="no"?>
<?xml-stylesheet type="text/css" href="../stylesheets/style.css" ?><svg
   xmlns:dc="http://purl.org/dc/elements/1.1/"
   xmlns:cc="http://creativecommons.org/ns#"
   xmlns:rdf="http://www.w3.org/1999/02/22-rdf-syntax-ns#"
   xmlns:svg="http://www.w3.org/2000/svg"
   xmlns="http://www.w3.org/2000/svg"
   xmlns:xlink="http://www.w3.org/1999/xlink"
   xmlns:sodipodi="http://sodipodi.sourceforge.net/DTD/sodipodi-0.dtd"
   xmlns:inkscape="http://www.inkscape.org/namespaces/inkscape"
   width="765"
   height="690"
   viewBox="0 0 765 690"
   preserveAspectRatio="xMidYMid"
   id="Logo_101"
   version="1.1"
   inkscape:version="0.48.4 r9939"
   sodipodi:docname="101_Final_Logo.svg">
  <g
     inkscape:label="Layer 1"
     inkscape:groupmode="layer"
     id="layer1"
     transform="translate(0,-362.36218)"
     style="display:inline;opacity:1;">
    <g
       inkscape:groupmode="layer"
       id="layer2"
       inkscape:label="Blackground"
       style="display:inline" />
    <rect
       style="fill:#ffffff;fill-opacity:1;stroke:#fcfcfc;stroke-opacity:1"
       id="rect3893"
       width="142.85715"
       height="162.85715"
       x="-1805.7142"
       y="-247.63782" />
    <g
       id="logo-main">
      <g
         id="left-one"
         transform="translate(0,301.94852)"
         inkscape:label="">
        <rect
           style="fill:#000000"
           id="rect2988"
           width="759.99988"
           height="685.71417"
           x="2.8572321"
           y="63.790756" />
        <path
           sodipodi:type="arc"
           style="fill:#ffffff;fill-opacity:1;stroke:#ffffff;stroke-width:2;stroke-miterlimit:4;stroke-opacity:1;stroke-dasharray:2, 2;stroke-dashoffset:0"
           id="outer-circle"
           sodipodi:cx="165.71428"
           sodipodi:cy="601.42859"
           sodipodi:rx="354.28571"
           sodipodi:ry="348.57144"
           d="m 519.99998,601.42859 c 0,192.51069 -158.61911,348.57144 -354.2857,348.57144 -195.666593,0 -354.28571,-156.06075 -354.28571,-348.57144 0,-192.51069 158.619117,-348.57144 354.28571,-348.57144 195.66659,0 354.2857,156.06075 354.2857,348.57144 z"
           transform="matrix(0.43597739,0,0,0.45830867,310.04148,121.23105)" />
        <path
           transform="matrix(0.3624503,0,0,0.37272006,321.08995,173.85702)"
           d="m 519.99998,601.42859 c 0,192.51069 -158.61911,348.57144 -354.2857,348.57144 -195.666593,0 -354.28571,-156.06075 -354.28571,-348.57144 0,-192.51069 158.619117,-348.57144 354.28571,-348.57144 195.66659,0 354.2857,156.06075 354.2857,348.57144 z"
           sodipodi:ry="348.57144"
           sodipodi:rx="354.28571"
           sodipodi:cy="601.42859"
           sodipodi:cx="165.71428"
           id="path4007"
           style="fill:#c3000a;fill-opacity:1;stroke:#fcfcfc;stroke-width:2;stroke-miterlimit:4;stroke-opacity:1;stroke-dasharray:2, 2;stroke-dashoffset:0"
           sodipodi:type="arc" />
        <path
           transform="matrix(0.2681143,0.00168654,-0.00176486,0.2805644,337.931,228.56602)"
           d="m 519.99998,601.42859 c 0,192.51069 -158.61911,348.57144 -354.2857,348.57144 -195.666593,0 -354.28571,-156.06075 -354.28571,-348.57144 0,-192.51069 158.619117,-348.57144 354.28571,-348.57144 195.66659,0 354.2857,156.06075 354.2857,348.57144 z"
           sodipodi:ry="348.57144"
           sodipodi:rx="354.28571"
           sodipodi:cy="601.42859"
           sodipodi:cx="165.71428"
           id="path4009"
           style="fill:#000000;fill-opacity:1;stroke:#000000;stroke-width:2;stroke-miterlimit:4;stroke-opacity:1;stroke-dasharray:2, 2;stroke-dashoffset:0"
           sodipodi:type="arc" />
        <g
           id="left-one-again"
           class=""
           transform="matrix(0.39760834,0,0,0.40268453,327.76001,119.79064)"
           inkscape:label="">
          <rect
             ry="0"
             y="272.03778"
             x="-375.23965"
             height="837.62604"
             width="97.109467"
             id="rect3895"
             style="fill:#ffffff;fill-opacity:1;stroke:#fcfcfc;stroke-width:2;stroke-miterlimit:4;stroke-opacity:1;stroke-dasharray:2, 2;stroke-dashoffset:0" />
          <path
             inkscape:connector-curvature="0"
             id="leftOne1"
             d="m -545.71423,460.93363 165.7142,-191.42858 60,51.42857 -168.5714,194.28572 z"
             style="fill:#fcfcfc;fill-opacity:1;stroke:#fcfcfc;stroke-width:1px;stroke-linecap:butt;stroke-linejoin:miter;stroke-opacity:1" />
        </g>
        <g
           id="right-one"
           class=""
           transform="matrix(0.39760834,0,0,0.40268453,260.73461,141.65066)"
           inkscape:label="">
          <rect
             style="fill:#ffffff;fill-opacity:1;stroke:#fcfcfc;stroke-width:2;stroke-miterlimit:4;stroke-opacity:1;stroke-dasharray:2, 2;stroke-dashoffset:0"
             id="rect3920"
             width="97.109467"
             height="837.62604"
             x="724.76031"
             y="217.75208"
             ry="0" />
          <path
             inkscape:connector-curvature="0"
             id="rightOneReal"
             d="m 768.57144,998.07649 165.7142,-191.42858 60,51.42857 -168.5714,194.28572 z"
             style="fill:#fcfcfc;fill-opacity:1;stroke:#fcfcfc;stroke-width:1px;stroke-linecap:butt;stroke-linejoin:miter;stroke-opacity:1"
             inkscape:label="" />
        </g>
        <g
           id="top-one"
           class=""
           transform="matrix(0.39760834,0,0,0.40268453,317.5358,128.99486)"
           style="fill:#c3000a;fill-opacity:1;stroke:#c3000a;stroke-opacity:1"
           inkscape:label="">
          <rect
             transform="matrix(0,1,-1,0,0,0)"
             ry="0"
             y="-583.51099"
             x="151.73761"
             height="837.62604"
             width="97.109467"
             id="rect3928"
             style="fill:#c3000a;fill-opacity:1;stroke:#c3000a;stroke-width:2;stroke-miterlimit:4;stroke-opacity:1;stroke-dasharray:2, 2;stroke-dashoffset:0" />
          <path
             inkscape:connector-curvature="0"
             id=""
             d="m 394.61516,-18.73696 191.42858,165.7142 -51.42857,60 -194.28572,-168.5714 z"
             style="fill:#c3000a;fill-opacity:1;stroke:#c3000a;stroke-width:1px;stroke-linecap:butt;stroke-linejoin:miter;stroke-opacity:1" />
        </g>
        <g
           id="bottom-one"
           class=""
           transform="matrix(0.39760834,0,0,0.40268453,275.50292,158.90857)"
           style="fill:#c3000a;fill-opacity:1;stroke:#c3000a;stroke-opacity:1"
           inkscape:label="">
          <rect
             transform="matrix(0,1,-1,0,0,0)"
             style="fill:#c3000a;fill-opacity:1;stroke:#c3000a;stroke-width:2;stroke-miterlimit:4;stroke-opacity:1;stroke-dasharray:2, 2;stroke-dashoffset:0"
             id="rect3936"
             width="97.109467"
             height="837.62604"
             x="1011.7376"
             y="-689.22528"
             ry="0" />
          <path
             inkscape:connector-curvature="0"
             id="bbb"
             d="m -91.09913,1055.5487 191.42858,165.7142 -51.42857,60 -194.28572,-168.5714 z"
             style="fill:#c3000a;fill-opacity:1;stroke:#c3000a;stroke-width:1px;stroke-linecap:butt;stroke-linejoin:miter;stroke-opacity:1" />
        </g>
        <path
           inkscape:connector-curvature="0"
           inkscape:original-d="m 352.81618,246.31716 -15.01686,3.83679 5.98793,24.03546 15.33037,-3.90022 -0.68971,-2.72697 -12.10127,3.07578 -2.16318,-8.71999 11.31751,-2.88553 -0.68971,-2.72697 -11.31751,2.88553 -1.75563,-7.10283 11.78777,-3.01237 -0.68971,-2.75868 z m 65.42837,1.83913 c -2.02009,0.0328 -3.84145,0.59063 -5.48633,1.64887 -2.6291,1.68251 -4.44501,4.44927 -5.42363,8.30777 -0.9759,3.8478 -0.7172,7.15942 0.78377,9.92493 1.50367,2.75479 4.05715,4.58529 7.6495,5.51737 1.39877,0.36292 2.78995,0.50533 4.13826,0.44393 1.35887,-0.0587 2.69384,-0.31248 4.01286,-0.79273 l 0.84646,-3.39287 c -1.33915,0.73777 -2.68722,1.17868 -4.04421,1.3635 -1.34642,0.18755 -2.69797,0.10376 -4.07555,-0.25368 -2.71282,-0.70387 -4.59463,-2.07622 -5.61173,-4.12218 -1.0144,-2.05666 -1.11544,-4.67029 -0.31351,-7.83213 0.80464,-3.17254 2.1476,-5.39249 4.01286,-6.69061 1.86795,-1.30878 4.15292,-1.62341 6.86574,-0.91955 1.37758,0.35744 2.60846,0.95577 3.69936,1.7757 1.10145,0.82271 2.06158,1.87225 2.88424,3.1709 l 0.87781,-3.42457 c -0.90909,-1.04692 -1.93783,-1.8978 -3.10369,-2.60014 -1.1526,-0.71027 -2.43615,-1.24871 -3.85611,-1.61716 -1.34713,-0.34953 -2.64405,-0.52701 -3.8561,-0.50735 z m -36.39786,2.7904 c -1.37845,0.001 -2.52881,0.47463 -3.4799,1.4269 -0.94018,0.94123 -1.41175,2.08422 -1.41077,3.45629 9.7e-4,1.38315 0.46925,2.56879 1.41077,3.5197 0.9415,0.95092 2.11239,1.4279 3.4799,1.42691 1.36749,-9.9e-4 2.50836,-0.50634 3.44855,-1.45862 0.94015,-0.95227 1.41173,-2.10484 1.41076,-3.48799 -9.8e-4,-1.37207 -0.46928,-2.51642 -1.41076,-3.45629 -0.93059,-0.95091 -2.09201,-1.42787 -3.44855,-1.4269 z m -51.54013,1.49032 -3.16639,1.42691 1.31672,22.25974 -15.48712,-15.85452 -3.1664,1.42691 18.52812,18.77175 3.41719,-1.55374 -1.44212,-26.47705 z m 108.31577,2.02937 -10.31429,22.48172 2.97829,1.4269 4.38906,-9.51271 3.26045,1.55375 c 1.19023,0.56018 2.01843,1.2474 2.47668,2.06109 0.46814,0.81835 0.71071,2.14505 0.75241,3.99534 l 0.18811,7.10282 3.22909,1.52203 -0.21945,-7.57846 c -0.0334,-1.55349 -0.18762,-2.85675 -0.47026,-3.86851 -0.27275,-1.00707 -0.6795,-1.7589 -1.22267,-2.28305 1.40598,0.22238 2.65674,0.0271 3.73071,-0.60246 1.08384,-0.62491 1.95129,-1.66123 2.60208,-3.07579 0.9969,-2.16695 1.10075,-4.07768 0.34486,-5.73933 -0.75594,-1.66162 -2.38284,-3.08565 -4.92202,-4.28072 l -6.80305,-3.20262 z m 1.84968,3.93193 3.7934,1.7757 c 1.44812,0.68157 2.39676,1.51914 2.82154,2.53672 0.43927,1.01226 0.35379,2.17379 -0.2508,3.48801 -0.60464,1.31422 -1.45031,2.14123 -2.50804,2.47329 -1.04323,0.32673 -2.28258,0.14251 -3.7307,-0.53904 l -3.7934,-1.77571 3.668,-7.95897 z m -136.31171,6.97599 -2.82154,1.74399 12.72827,21.18165 2.82154,-1.744 -12.72827,-21.18164 z m 159.07213,1.87083 -14.045,20.29379 12.94773,9.16391 1.59888,-2.31476 -10.22025,-7.22966 5.07877,-7.3565 9.56189,6.75403 1.59887,-2.31477 -9.56188,-6.75402 4.16961,-6.02472 9.96944,7.07112 1.59887,-2.31476 -12.69693,-8.97366 z m -167.1919,2.98065 -16.33358,12.90558 1.72428,2.21964 6.83439,-5.42226 13.38664,17.31314 2.63344,-2.09279 -13.38664,-17.28143 6.8344,-5.42225 -1.69293,-2.21963 z m 191.8647,16.8375 -23.79499,11.16158 2.50804,2.4416 5.98793,-2.94894 7.90031,7.80043 -2.79019,6.11984 2.44534,2.40989 10.43969,-24.32084 -2.69613,-2.66356 z m -0.94052,3.70996 -5.26687,12.01773 -6.45819,-6.37352 11.72506,-5.64421 z m -214.78186,0.12684 -2.57074,2.7904 11.56831,23.81349 2.38264,-2.60014 -3.07235,-5.99302 7.52411,-8.18093 6.11333,2.69527 2.35129,-2.53673 -24.29659,-9.98834 z m 1.09726,3.64654 12.00722,5.07344 -6.14469,6.6589 -5.86253,-11.73234 z m 224.81401,2.98065 -2.22588,1.68058 5.20417,7.07111 -17.43084,13.12754 2.00642,2.69527 17.3995,-13.12754 5.20417,7.07112 2.22588,-1.71229 -12.38342,-16.80579 z m -238.89036,8.4346 -8.62137,13.03241 20.34644,13.79344 8.77812,-13.25438 -2.28858,-1.58545 -6.9598,10.4957 -7.36735,-5.01004 6.48954,-9.79809 -2.31993,-1.58545 -6.48954,9.79809 -6.01929,-4.05876 6.7717,-10.24201 -2.31994,-1.58546 z m 254.22072,13.79343 -21.22424,12.39824 1.66157,2.91723 21.1929,-12.39824 -1.63023,-2.91723 z m 5.14148,8.68829 -18.96702,18.29611 1.47347,3.5197 26.20897,-0.88785 -1.34807,-3.23432 -22.03936,0.85614 16.02008,-15.34718 -1.34807,-3.2026 z m -270.99321,3.07577 c -0.68565,0.0484 -1.33225,0.21075 -1.94373,0.50735 -1.63057,0.79097 -2.99732,2.48649 -4.13825,5.07344 l -3.041,6.91257 22.35287,10.08348 1.34807,-3.04408 -9.43649,-4.28071 1.47347,-3.32945 c 0.53482,-1.21263 1.17801,-2.06032 1.97508,-2.53672 0.80154,-0.48649 2.1217,-0.75278 3.95016,-0.82444 l 7.0225,-0.31709 1.44212,-3.29774 -7.49276,0.3488 c -1.53519,0.0586 -2.79773,0.23709 -3.7934,0.53905 -0.99122,0.2919 -1.71639,0.74242 -2.22588,1.30007 0.19741,-1.42542 -0.0503,-2.6973 -0.68971,-3.77337 -0.63503,-1.08614 -1.63225,-1.93282 -3.041,-2.56844 -1.34879,-0.60851 -2.6193,-0.87348 -3.76205,-0.79272 z m 0.47026,3.51971 c 0.57562,0.0326 1.19527,0.21209 1.84967,0.50733 1.30884,0.59054 2.13155,1.40891 2.47669,2.47331 0.33961,1.04983 0.18043,2.29801 -0.47026,3.77338 l -1.69292,3.86851 -7.93166,-3.58313 1.69292,-3.8685 c 0.65069,-1.47536 1.4775,-2.43972 2.47669,-2.88553 0.49684,-0.23018 1.02324,-0.3179 1.59887,-0.28537 z M 237.039,353.55715 c -1.02589,0.92994 -1.88808,2.01643 -2.57073,3.2026 -0.69064,1.17286 -1.18616,2.46039 -1.53617,3.90022 -0.88542,3.64262 -0.47772,6.80451 1.22266,9.4493 1.6898,2.64216 4.45203,4.43949 8.27652,5.39053 3.81389,0.9484 7.0623,0.62626 9.78134,-0.91956 2.7084,-1.54845 4.50684,-4.1261 5.39227,-7.76872 0.34477,-1.41834 0.4818,-2.82254 0.40756,-4.18559 -0.0716,-1.37376 -0.35843,-2.72954 -0.84646,-4.05876 l -3.3545,-0.82444 c 0.74283,1.34701 1.21444,2.68819 1.41077,4.05877 0.19894,1.35988 0.12009,2.75703 -0.21945,4.15388 -0.66865,2.75077 -2.00035,4.65841 -4.01286,5.70763 -2.02312,1.04658 -4.60958,1.15984 -7.74356,0.3805 -3.14458,-0.78195 -5.37556,-2.09015 -6.67764,-3.96362 -1.31268,-1.8761 -1.60915,-4.19351 -0.94052,-6.94428 0.33957,-1.39686 0.89326,-2.66183 1.69293,-3.77338 0.80231,-1.12225 1.85939,-2.10387 3.13504,-2.94894 l -3.4172,-0.85614 z m 292.31151,3.36116 -23.85769,5.6125 3.57395,15.56913 2.69614,-0.66589 -2.82154,-12.2714 8.65272,-2.02938 2.63344,11.47868 2.72749,-0.63419 -2.63344,-11.47867 7.05385,-1.68057 2.75884,11.98601 2.72749,-0.63417 -3.51125,-15.25205 z M 240.2681,396.26922 c -1.35655,0.003 -2.48937,0.47324 -3.4172,1.42691 -0.93876,0.94266 -1.41376,2.11593 -1.41077,3.488 0.003,1.39421 0.46784,2.55915 1.41077,3.5197 0.932,0.94952 2.092,1.42995 3.44855,1.4269 1.36751,-0.003 2.5098,-0.47319 3.44855,-1.4269 0.93875,-0.9537 1.41381,-2.13656 1.41077,-3.5197 -0.003,-1.38313 -0.46784,-2.53849 -1.41077,-3.488 -0.94291,-0.94948 -2.11239,-1.42995 -3.4799,-1.42691 z m 282.81232,0.0317 c -1.36744,-0.0143 -2.52936,0.45351 -3.4799,1.3952 -0.95055,0.94167 -1.42794,2.10492 -1.44212,3.488 -0.0141,1.38305 0.44838,2.55827 1.37942,3.5197 0.93102,0.9614 2.08111,1.44426 3.44855,1.45862 1.35647,0.0142 2.50893,-0.45343 3.44855,-1.3952 0.95041,-0.93064 1.42803,-2.0843 1.44212,-3.45629 0.0142,-1.39414 -0.44852,-2.57893 -1.37942,-3.55141 -0.92011,-0.96131 -2.06072,-1.4444 -3.4172,-1.45862 z m -5.92523,26.50876 c -2.12701,0.0188 -4.04982,0.50276 -5.73713,1.49032 -2.68905,1.58261 -4.45792,4.21032 -5.29823,7.86385 -0.3272,1.4226 -0.43594,2.82359 -0.34485,4.18559 0.0886,1.37275 0.37337,2.70411 0.87781,4.02705 l 3.38585,0.79273 c -0.75944,-1.3375 -1.26021,-2.69077 -1.47347,-4.05877 -0.21574,-1.35724 -0.16549,-2.72112 0.15675,-4.12217 0.63457,-2.75901 1.95078,-4.66474 3.95015,-5.73934 2.01002,-1.0721 4.60019,-1.24696 7.74356,-0.50733 3.15401,0.74209 5.38384,2.04337 6.709,3.90021 1.33578,1.85932 1.70046,4.15354 1.06591,6.91257 -0.32226,1.40103 -0.87572,2.6835 -1.66157,3.80508 -0.78837,1.13231 -1.80725,2.11951 -3.07234,2.98065 l 3.38584,0.79273 c 1.01432,-0.94286 1.87145,-2.00789 2.53939,-3.20262 0.67607,-1.18149 1.17264,-2.48777 1.50482,-3.93191 0.84029,-3.65355 0.38488,-6.79454 -1.34807,-9.41759 -1.72234,-2.62057 -4.50326,-4.39285 -8.33922,-5.29541 -1.43449,-0.33753 -2.76799,-0.48689 -4.0442,-0.47564 z m -262.59129,1.36349 -2.72749,0.66589 2.97829,12.23969 -8.62137,2.15621 -2.79019,-11.47867 -2.69614,0.69761 2.79019,11.44695 -7.05385,1.744 -2.91559,-11.95431 -2.69613,0.66589 3.69935,15.22035 23.79498,-5.89789 -3.76205,-15.50572 z m 248.51494,20.73772 -1.31672,3.07577 9.53053,4.15388 -1.44212,3.32945 c -0.51954,1.2194 -1.18405,2.08183 -1.97507,2.56844 -0.79536,0.49674 -2.0914,0.79271 -3.91881,0.88785 l -7.0225,0.41222 -1.41077,3.29773 7.49276,-0.44392 c 1.53432,-0.0783 2.8016,-0.28774 3.7934,-0.60247 0.98747,-0.30461 1.72343,-0.73592 2.22588,-1.30007 -0.1795,1.42785 0.0681,2.67389 0.72106,3.74166 0.64861,1.07791 1.65574,1.91927 3.07235,2.53673 2.17011,0.94583 4.08523,1.03376 5.70578,0.22197 1.62051,-0.81186 2.96719,-2.53549 4.07555,-5.13688 l 2.9783,-6.94427 -22.50962,-9.79809 z m -240.17572,6.97598 -26.20897,1.23665 1.37942,3.20262 22.00801,-1.14153 -15.80063,15.53743 1.37942,3.20262 18.71622,-18.5498 -1.47347,-3.48799 z m 250.86622,1.33178 7.99436,3.48799 -1.66157,3.86851 c -0.63212,1.48359 -1.42048,2.45863 -2.41399,2.91723 -0.98781,0.4731 -2.16377,0.41508 -3.47989,-0.15854 -1.31615,-0.57367 -2.14957,-1.38172 -2.50804,-2.4416 -0.35277,-1.04538 -0.1932,-2.32149 0.43891,-3.80509 l 1.63022,-3.8685 z m -20.53454,13.12755 -8.62137,13.38121 2.31993,1.52203 6.8344,-10.5591 7.43005,4.91489 -6.36414,9.89322 2.31994,1.52205 6.36414,-9.86153 6.08198,3.99534 -6.64629,10.30545 2.31993,1.55374 8.46462,-13.12754 -20.50319,-13.53976 z m -222.93298,0.63417 -21.0675,12.68363 1.69293,2.85381 21.06749,-12.65191 -1.69292,-2.88553 z m 8.37057,12.87387 -17.24274,13.34952 -5.29823,-7.0077 -2.22588,1.71229 12.60288,16.64725 2.22588,-1.71229 -5.29823,-6.976 17.24275,-13.3495 -2.00643,-2.66357 z m 204.49892,1.93426 -2.35128,2.60014 3.16639,5.9613 -7.43005,8.27606 -6.14469,-2.63185 -2.31993,2.60014 24.42199,9.67126 2.50804,-2.8221 -11.85047,-23.65495 z m -198.94989,6.02472 -10.09485,24.44767 2.72749,2.63185 23.63823,-11.44697 -2.53938,-2.44159 -5.92523,3.07577 -8.02572,-7.70529 2.72749,-6.15156 -2.50803,-2.40988 z m 201.14442,5.16858 5.98793,11.63721 -12.06991,-4.9149 6.08198,-6.72231 z m -202.49249,6.11983 6.52089,6.27839 -11.66237,5.80276 5.14148,-12.08115 z m 180.07693,3.20262 -2.60209,2.1245 13.60609,17.09118 -6.77169,5.51737 1.72427,2.18792 16.17683,-13.12754 -1.75563,-2.18792 -6.77169,5.51737 -13.60609,-17.12288 z m -160.45156,2.63185 -1.56752,2.34647 10.3143,7.10282 -5.01608,7.41992 -9.62458,-6.6589 -1.56752,2.34647 9.62458,6.62719 -4.07555,6.05642 -10.0635,-6.91257 -1.56752,2.31477 12.79098,8.81511 13.7942,-20.45233 -13.04179,-9.00537 z m 148.16218,6.46865 -2.82154,1.7757 13.01044,20.99139 2.82154,-1.77571 -13.01044,-20.99138 z m -131.48374,4.91489 0.3135,7.57846 c 0.0536,1.55292 0.23726,2.82888 0.53296,3.8368 0.28575,1.00338 0.70412,1.76614 1.25402,2.28305 -1.40874,-0.20373 -2.63362,0.0222 -3.69936,0.66589 -1.07566,0.63919 -1.93829,1.65273 -2.57073,3.07578 -0.96879,2.17995 -1.05948,4.11953 -0.28216,5.77105 0.77737,1.65147 2.4303,3.05593 4.98472,4.2173 l 6.8344,3.10748 10.03214,-22.60855 -3.00964,-1.36348 -4.26366,9.54442 -3.2918,-1.49033 c -1.19737,-0.54438 -2.00794,-1.22182 -2.47668,-2.02938 -0.47869,-0.81208 -0.74949,-2.14577 -0.81511,-3.99533 l -0.28216,-7.10283 -3.26044,-1.49033 z m 117.31334,3.10749 -3.41719,1.58546 1.81832,26.44534 3.13505,-1.45862 -1.59888,-22.22804 15.70657,15.63255 3.13505,-1.45861 -18.77892,-18.51808 z m -15.39306,6.46865 -15.23632,4.09046 0.72106,2.72698 12.03857,-3.23432 2.28859,8.68828 -11.28616,3.01236 0.72106,2.72697 11.28616,-3.01236 1.84967,7.07112 -11.75641,3.17091 0.72106,2.72697 14.95416,-4.02704 -6.30144,-23.94033 z m -75.05296,1.14152 c -0.34035,-0.007 -0.69771,0.0119 -1.03456,0.0317 -1.35801,0.0764 -2.70011,0.35865 -4.01286,0.85615 l -0.81511,3.39287 c 1.32959,-0.75525 2.68971,-1.22432 4.04421,-1.4269 1.3439,-0.20519 2.69352,-0.11739 4.07556,0.22196 2.7216,0.66826 4.59985,1.9946 5.64307,4.02705 1.04066,2.0432 1.20027,4.66003 0.43891,7.83213 -0.76393,3.18282 -2.07033,5.43158 -3.9188,6.75403 -1.85103,1.33316 -4.14414,1.68292 -6.86575,1.01469 -1.38204,-0.33937 -2.62939,-0.93844 -3.7307,-1.744 -1.1119,-0.8082 -2.07637,-1.85143 -2.91559,-3.1392 l -0.84647,3.45629 c 0.92244,1.03491 1.99164,1.88143 3.1664,2.56843 1.16159,0.6951 2.46289,1.20393 3.88745,1.55375 3.604,0.88489 6.70119,0.49088 9.31108,-1.23666 2.60734,-1.71682 4.36912,-4.5319 5.29823,-8.40289 0.92653,-3.86028 0.62711,-7.14762 -0.90916,-9.89323 -1.53884,-2.73486 -4.10823,-4.53733 -7.71221,-5.42225 -1.05248,-0.25842 -2.08265,-0.42379 -3.1037,-0.44392 z m -24.57874,5.51737 c 0.85755,-0.0673 1.82298,0.16915 2.91559,0.66589 l 3.82475,1.71229 -3.57395,8.02239 -3.7934,-1.71229 c -1.45681,-0.66234 -2.41499,-1.52485 -2.85289,-2.53672 -0.45232,-1.00635 -0.36809,-2.1659 0.21945,-3.48799 0.58759,-1.32213 1.39199,-2.15898 2.44534,-2.50502 0.25973,-0.0851 0.52926,-0.1361 0.81511,-0.15855 z m 61.79172,7.26137 c -1.36736,0.019 -2.52071,0.49403 -3.44855,1.45862 -0.92781,0.96458 -1.39819,2.16839 -1.37942,3.55142 0.0187,1.37193 0.51995,2.49718 1.47347,3.42457 0.94275,0.93857 2.09213,1.41403 3.44855,1.3952 1.37831,-0.0192 2.54114,-0.52561 3.4799,-1.49033 0.92798,-0.95353 1.36671,-2.11606 1.34807,-3.48799 -0.0188,-1.38302 -0.48845,-2.54956 -1.44212,-3.48799 -0.95367,-0.93845 -2.11252,-1.3825 -3.4799,-1.3635 z"
           inkscape:path-effect="#path-effect3865"
           id="outer-circle-text"
           d="m 351.761,244.40388 c -5.12402,1.31363 -10.24197,2.63363 -15.35406,3.95969 2.11769,7.99302 4.2283,15.98705 6.33162,23.98208 5.20278,-1.34312 10.41124,-2.67984 15.62559,-4.00982 -0.24025,-0.90765 -0.48059,-1.81529 -0.72103,-2.72292 -4.11758,1.04935 -8.23145,2.10289 -12.34174,3.16045 -0.75928,-2.9009 -1.51953,-5.80167 -2.28073,-8.70231 3.84844,-0.99342 7.70012,-1.98333 11.55512,-2.96961 -0.24117,-0.90751 -0.48244,-1.815 -0.72381,-2.72248 -3.8564,0.98672 -7.70946,1.97707 -11.55926,2.97092 -0.61835,-2.36265 -1.23733,-4.72522 -1.85692,-7.0877 4.01341,-1.03861 8.03043,-2.07343 12.05116,-3.10433 -0.24188,-0.918 -0.48386,-1.83599 -0.72594,-2.75397 0,0 0,0 0,0 z m 67.2459,1.77174 c -2.08093,0.0222 -3.9592,0.57174 -5.65639,1.62316 -2.71266,1.67162 -4.5887,4.43269 -5.60493,8.28811 -1.01341,3.84474 -0.75525,7.1569 0.77572,9.9271 1.53378,2.75948 4.14404,4.59835 7.8216,5.54721 1.43195,0.36946 2.857,0.51897 4.2394,0.46501 1.3932,-0.0512 2.76315,-0.29706 4.11865,-0.76893 0.2962,-1.12911 0.59259,-2.25819 0.88919,-3.38724 -1.37881,0.72901 -2.76417,1.16167 -4.15697,1.33877 -1.38198,0.17989 -2.76743,0.089 -4.17841,-0.27516 -2.7786,-0.71703 -4.70277,-2.09648 -5.73898,-4.14619 -1.0334,-2.0604 -1.1293,-4.67428 -0.29443,-7.83305 0.83769,-3.16946 2.22694,-5.38424 4.15176,-6.67389 1.92763,-1.3003 4.28219,-1.60361 7.0715,-0.88377 1.41642,0.36555 2.68033,0.97168 3.79827,1.79882 1.12879,0.82999 2.11021,1.88622 2.94784,3.19075 0.30903,-1.13933 0.61827,-2.27863 0.92773,-3.4179 -0.92882,-1.05361 -1.98275,-1.91184 -3.17925,-2.62206 -1.18278,-0.71806 -2.50195,-1.26479 -3.96272,-1.64175 -1.38585,-0.35761 -2.72103,-0.54231 -3.96958,-0.52899 0,0 0,0 0,0 z m -37.4364,2.73006 c -1.41541,0.003 -2.59546,0.4797 -3.56917,1.43429 -0.96253,0.94353 -1.44303,2.08786 -1.43822,3.45993 0.005,1.38315 0.48831,2.56747 1.45583,3.51609 0.9675,0.94862 2.1685,1.42297 3.57027,1.41951 1.40175,-0.003 2.5705,-0.51038 3.53349,-1.46376 0.96296,-0.95338 1.44572,-2.10631 1.4433,-3.48946 -0.002,-1.37206 -0.48428,-2.51605 -1.45221,-3.45482 -0.95676,-0.94982 -2.15038,-1.42519 -3.54329,-1.42178 z m -52.80748,1.81599 c -1.07447,0.48684 -2.14859,0.97393 -3.22236,1.46129 0.52989,7.41496 1.05832,14.82998 1.58528,22.24505 -5.31715,-5.22864 -10.64424,-10.45094 -15.98028,-15.66715 -1.07068,0.48962 -2.14103,0.97949 -3.21103,1.4696 6.38314,6.17224 12.75379,12.3531 19.11029,18.54302 1.15435,-0.53032 2.30908,-1.06033 3.46421,-1.59004 -0.5801,-8.82066 -1.16214,-17.64125 -1.74611,-26.46177 z m 111.19192,1.91267 c -3.60996,7.46079 -7.20265,14.92554 -10.77865,22.39412 1.01423,0.48278 2.02827,0.96585 3.04211,1.44923 1.52333,-3.15921 3.04968,-6.31772 4.5791,-9.47552 1.11185,0.52741 2.22346,1.05519 3.33484,1.58335 1.21719,0.57139 2.0611,1.26678 2.52373,2.08497 0.47273,0.82294 0.70869,2.15198 0.73333,4.00251 0.0411,2.36801 0.0821,4.73601 0.12309,7.10402 1.09764,0.51822 2.19503,1.03681 3.29217,1.55576 -0.0484,-2.52667 -0.0968,-5.05334 -0.1454,-7.58001 -0.018,-1.55369 -0.16261,-2.85848 -0.44228,-3.87316 -0.26957,-1.00989 -0.67954,-1.76598 -1.2321,-2.29576 1.44175,0.23707 2.72834,0.0555 3.8386,-0.56185 1.12035,-0.61263 2.02346,-1.63868 2.70882,-3.04536 1.04985,-2.15488 1.17977,-4.06406 0.42076,-5.73453 -0.75905,-1.67044 -2.41842,-3.11381 -5.02134,-4.33638 -2.3246,-1.0921 -4.65021,-2.18255 -6.97678,-3.27139 0,0 0,0 0,0 z m 1.86858,3.94937 c 1.29623,0.60426 2.59216,1.20902 3.88778,1.81429 1.48376,0.69689 2.45125,1.54504 2.87736,2.56727 0.44108,1.01708 0.34018,2.17749 -0.29571,3.48481 -0.63594,1.30733 -1.51387,2.12492 -2.60425,2.44572 -1.07543,0.31562 -2.34678,0.1186 -3.8283,-0.5771 -1.29367,-0.60427 -2.58765,-1.20803 -3.88194,-1.81129 1.27953,-2.64173 2.5612,-5.28297 3.84506,-7.9237 z m -139.59033,7.40465 c -0.95002,0.59499 -1.89972,1.19017 -2.8491,1.78553 4.42498,6.99677 8.83935,13.99757 13.24225,21.00253 0.94836,-0.5936 1.89703,-1.187 2.84602,-1.7802 -4.40176,-7.00677 -8.81511,-14.00935 -13.23917,-21.00786 z m 162.91418,1.72035 c -4.915,6.69436 -9.80704,13.39642 -14.67712,20.10586 4.38478,3.10438 8.76264,6.21469 13.13319,9.33109 0.55588,-0.76378 1.11205,-1.52746 1.66851,-2.29104 -3.45104,-2.45987 -6.90665,-4.91592 -10.36661,-7.36825 1.76392,-2.4306 3.53075,-4.86022 5.30052,-7.28884 3.24062,2.29465 6.47742,4.5926 9.71026,6.89392 0.55825,-0.76302 1.11681,-1.52595 1.67566,-2.28878 -3.23394,-2.30248 -6.47186,-4.60159 -9.71359,-6.89738 1.45443,-1.9884 2.91086,-3.97613 4.36931,-5.96318 3.38282,2.40651 6.76149,4.81667 10.1358,7.23053 0.56047,-0.76224 1.12123,-1.52438 1.6823,-2.28642 -4.29918,-3.06516 -8.60538,-6.12429 -12.91823,-9.17751 0,0 0,0 0,0 z m -171.11069,3.25368 c -5.47469,4.38704 -10.93684,8.78017 -16.38729,13.17897 0.59637,0.72953 1.1926,1.45912 1.78869,2.18879 2.28047,-1.84746 4.56299,-3.69391 6.84763,-5.53934 4.62821,5.69587 9.24808,11.39599 13.85883,17.1005 0.88019,-0.71059 1.7607,-1.42103 2.64152,-2.1313 -4.61041,-5.69563 -9.23,-11.38684 -13.85798,-17.07376 2.28628,-1.84463 4.5747,-3.68821 6.86533,-5.53072 -0.58544,-0.73112 -1.17102,-1.46216 -1.75673,-2.19314 0,0 0,0 0,0 z m 196.1276,16.99319 c -8.21268,3.55805 -16.39987,7.13871 -24.56307,10.74077 0.84292,0.82616 1.68543,1.65254 2.52755,2.47915 2.05462,-0.95205 4.11082,-1.90273 6.16863,-2.85203 2.65111,2.64381 5.29809,5.28992 7.94084,7.93836 -0.98716,2.02223 -1.97296,4.04477 -2.95742,6.06764 0.8173,0.81771 1.6342,1.63564 2.45068,2.45379 3.6947,-8.04092 7.40942,-16.07733 11.14482,-24.10906 -0.90351,-0.90649 -1.80752,-1.81269 -2.71203,-2.71862 z m -1.03803,3.68998 c -1.87867,3.96956 -3.75221,7.9403 -5.62071,11.9122 -2.16124,-2.1646 -4.32531,-4.32763 -6.49214,-6.48912 4.03147,-1.81308 8.06903,-3.62082 12.11285,-5.42308 z m -218.968,0.40183 c -0.8513,0.94616 -1.70223,1.89245 -2.55281,2.83888 4.05593,7.86295 8.10185,15.72898 12.13695,23.59819 0.78761,-0.88061 1.57551,-1.7611 2.36373,-2.64147 -1.06957,-1.97978 -2.13987,-3.95934 -3.21088,-5.93868 2.48978,-2.77113 4.98264,-5.54108 7.4787,-8.3098 2.0794,0.86426 4.1584,1.72937 6.23697,2.59536 0.78078,-0.85797 1.56188,-1.71582 2.3433,-2.57355 -8.25992,-3.20317 -16.52576,-6.39245 -24.79596,-9.56893 z m 1.17918,3.62551 c 4.08613,1.61616 8.17108,3.23546 12.25464,4.85802 -2.03779,2.25446 -4.07345,4.50974 -6.10707,6.7658 -2.04659,-3.87541 -4.09581,-7.75001 -6.14757,-11.62382 z m 229.05121,2.96337 c -0.77236,0.54314 -1.54439,1.0865 -2.31608,1.63005 1.72446,2.39488 3.44624,4.79078 5.16529,7.18771 -6.03989,4.23837 -12.05942,8.48933 -18.05957,12.75238 0.66416,0.91108 1.32792,1.8223 1.99128,2.73367 5.98835,-4.26056 11.99604,-8.50903 18.02405,-12.7449 1.71696,2.39772 3.43116,4.79649 5.14255,7.1963 0.77101,-0.55193 1.54236,-1.10364 2.31405,-1.65514 -4.0715,-5.70594 -8.15891,-11.40593 -12.26157,-17.10007 0,0 0,0 0,0 z m -243.0779,8.72552 c -2.81822,4.40207 -5.63142,8.8055 -8.43982,13.21023 6.94085,4.45196 13.87417,8.91226 20.79848,13.3815 2.86784,-4.47279 5.74094,-8.94409 8.61955,-13.41382 -0.78002,-0.51486 -1.56015,-1.02961 -2.3404,-1.54424 -2.28162,3.54016 -4.5598,7.0813 -6.83467,10.62337 -2.50873,-1.62328 -5.01861,-3.24538 -7.5296,-4.86635 2.11885,-3.30853 4.24052,-6.61627 6.36511,-9.92319 -0.79146,-0.51365 -1.58304,-1.02718 -2.37472,-1.54059 -2.12385,3.30754 -4.2448,6.61588 -6.36294,9.92501 -2.05186,-1.31226 -4.10442,-2.62377 -6.15765,-3.93453 2.20819,-3.46056 4.41939,-6.92029 6.63372,-10.37917 -0.79226,-0.51285 -1.58461,-1.02559 -2.37706,-1.53822 z m 258.20653,13.87152 c -7.31951,3.94456 -14.61491,7.90814 -21.88752,11.88985 0.54227,0.98388 1.08417,1.96786 1.62571,2.95194 7.25912,-3.97921 14.54094,-7.94028 21.8468,-11.88233 -0.52796,-0.98658 -1.05629,-1.97307 -1.58499,-2.95946 z m 5.0051,8.82376 c -6.59884,5.92167 -13.16721,11.85892 -19.70673,17.81106 0.47074,1.18411 0.94108,2.36831 1.41101,3.55258 8.84537,-0.093 17.69493,-0.15838 26.54873,-0.19474 -0.42324,-1.09097 -0.84683,-2.18188 -1.27078,-3.27271 -7.45199,0.0695 -14.90064,0.1594 -22.34601,0.26897 5.52809,-4.98633 11.0768,-9.96193 16.64709,-14.9264 -0.42742,-1.07965 -0.85519,-2.15924 -1.28331,-3.23876 z m -274.42007,3.10234 c -0.68981,0.0633 -1.33779,0.23967 -1.94741,0.54959 -1.62561,0.8265 -2.96521,2.55201 -4.0567,5.16386 -0.9696,2.32631 -1.9384,4.65276 -2.90639,6.97936 7.5702,3.19164 15.13503,6.39267 22.69316,9.60392 0.4316,-1.02355 0.86337,-2.04706 1.29531,-3.07054 -3.19192,-1.3641 -6.38503,-2.72637 -9.57924,-4.08686 0.471,-1.11995 0.94219,-2.23985 1.41359,-3.35972 0.51321,-1.22357 1.14328,-2.0845 1.93605,-2.57727 0.79706,-0.50295 2.12096,-0.79639 3.96087,-0.90493 2.35521,-0.15292 4.71078,-0.30485 7.06672,-0.45576 0.46319,-1.10839 0.92658,-2.21674 1.39018,-3.32505 -2.51478,0.1641 -5.02913,0.32935 -7.54305,0.49573 -1.54548,0.0894 -2.81374,0.29362 -3.81051,0.61596 -0.9925,0.3122 -1.71363,0.77768 -2.21523,1.34582 0.16948,-1.42927 -0.10607,-2.69581 -0.77246,-3.75834 -0.66219,-1.07269 -1.68457,-1.89835 -3.11741,-2.50393 -1.37186,-0.57974 -2.6578,-0.81735 -3.80748,-0.71184 0,0 0,0 0,0 z m 0.54903,3.50883 c 0.58046,0.0202 1.20842,0.18627 1.87379,0.46746 1.33077,0.56242 2.17651,1.36329 2.54629,2.42021 0.36391,1.04247 0.22951,2.29376 -0.39458,3.78261 -0.54103,1.3012 -1.0818,2.60244 -1.6223,3.90372 -2.68519,-1.13777 -5.37113,-2.27431 -8.05775,-3.40965 0.53945,-1.30175 1.07915,-2.60347 1.61911,-3.90513 0.62287,-1.4894 1.43455,-2.47173 2.43124,-2.93922 0.49542,-0.24096 1.02373,-0.34009 1.6042,-0.32 z m -10.6632,18.75813 c -1.00986,0.95306 -1.85134,2.05906 -2.50992,3.26065 -0.66691,1.18846 -1.13495,2.48713 -1.45324,3.93469 -0.80517,3.66218 -0.32234,6.81363 1.44365,9.41864 1.75532,2.60262 4.56535,4.33629 8.42064,5.20266 3.84459,0.86397 7.09369,0.47255 9.78817,-1.13005 2.68376,-1.605 4.43538,-4.21884 5.25037,-7.8789 0.31734,-1.42514 0.42661,-2.83189 0.32448,-4.1932 -0.0997,-1.37208 -0.41522,-2.7218 -0.93261,-4.04081 -1.12911,-0.25188 -2.25828,-0.50354 -3.38751,-0.75497 0.7743,1.33127 1.27562,2.66246 1.50097,4.02874 0.22776,1.35553 0.17718,2.75406 -0.13495,4.15769 -0.61465,2.76412 -1.91145,4.69896 -3.90824,5.79052 -2.0075,1.08915 -4.59877,1.25769 -7.75914,0.54749 -3.17106,-0.71258 -5.43803,-1.96987 -6.78675,-3.81326 -1.35941,-1.84578 -1.71015,-4.15572 -1.10133,-6.9211 0.30919,-1.40429 0.83652,-2.6816 1.61468,-3.81105 0.78058,-1.1402 1.82055,-2.1455 3.0836,-3.01893 -1.1509,-0.25982 -2.30186,-0.51942 -3.45287,-0.77881 0,0 0,0 0,0 z m 294.65622,3.40492 c -8.09274,1.62994 -16.17267,3.28425 -24.24051,4.96175 1.07702,5.21685 2.1496,10.43412 3.2177,15.65183 0.90884,-0.1994 1.81782,-0.39849 2.72697,-0.59729 -0.84089,-4.11314 -1.68458,-8.22601 -2.53106,-12.33861 2.92486,-0.60395 5.8513,-1.20483 8.77935,-1.80258 0.78227,3.8486 1.56206,7.69743 2.33936,11.54649 0.9205,-0.18604 1.84116,-0.37177 2.76197,-0.55719 -0.77486,-3.84961 -1.55223,-7.69898 -2.33208,-11.54812 2.38807,-0.49441 4.77724,-0.98673 7.16751,-1.47693 0.81078,4.02084 1.6188,8.04193 2.42404,12.06329 0.92151,-0.18375 1.84317,-0.36718 2.765,-0.55029 -1.02157,-5.11788 -2.04767,-10.23533 -3.07825,-15.35235 z m -290.46234,39.22438 c -1.3569,0.0332 -2.47957,0.52877 -3.38599,1.50318 -0.91759,0.96364 -1.36583,2.14745 -1.33165,3.51911 0.0347,1.39379 0.52588,2.54784 1.48993,3.48687 0.95287,0.92826 2.1227,1.38253 3.47815,1.34938 1.3664,-0.0334 2.49741,-0.5285 3.41477,-1.50249 0.91736,-0.97398 1.36663,-2.16685 1.3336,-3.54963 -0.033,-1.38278 -0.52282,-2.52785 -1.48665,-3.45655 -0.96381,-0.92867 -2.1443,-1.38332 -3.51216,-1.34987 0,0 0,0 0,0 z m 283.00908,-0.0427 c -1.36792,-0.0531 -2.54381,0.38219 -3.52055,1.29735 -0.97674,0.91513 -1.48553,2.06505 -1.53725,3.44719 -0.0516,1.38212 0.37864,2.56935 1.28193,3.55596 0.90327,0.98658 2.0377,1.50112 3.40225,1.55419 1.35361,0.0526 2.51727,-0.38152 3.483,-1.29546 0.97617,-0.90249 1.48751,-2.04143 1.54216,-3.41239 0.0554,-1.39309 -0.37204,-2.59112 -1.27478,-3.59039 -0.89226,-0.98779 -2.01981,-1.50373 -3.37676,-1.55645 0,0 0,0 0,0 z m -6.64209,26.33454 c -2.11502,-0.0382 -4.03957,0.39577 -5.74169,1.34016 -2.71287,1.51381 -4.5342,4.09809 -5.45625,7.73018 -0.35903,1.41425 -0.50049,2.81218 -0.44307,4.17591 0.0547,1.37441 0.30472,2.71213 0.77196,4.0468 1.11096,0.2914 2.22166,0.58326 3.3321,0.87557 -0.71804,-1.35598 -1.18042,-2.72109 -1.3578,-4.09386 -0.18011,-1.36208 -0.0967,-2.72426 0.25767,-4.11687 0.69788,-2.74239 2.05229,-4.61497 4.06562,-5.63787 2.02383,-1.02012 4.60256,-1.12704 7.70374,-0.30106 3.11167,0.82874 5.28768,2.19429 6.54767,4.08902 1.27045,1.89753 1.56256,4.20165 0.85241,6.94075 -0.36065,1.39091 -0.94635,2.65654 -1.75658,3.75482 -0.81304,1.10895 -1.84921,2.06638 -3.12444,2.89144 1.10827,0.29599 2.21627,0.59245 3.32399,0.88938 1.03014,-0.91296 1.9092,-1.9522 2.60563,-3.12653 0.70408,-1.16086 1.23495,-2.45161 1.60763,-3.88508 0.94274,-3.62654 0.58897,-6.78011 -1.05225,-9.45366 -1.63076,-2.67076 -4.34176,-4.52457 -8.1293,-5.53332 -1.41638,-0.37724 -2.73802,-0.56284 -4.00704,-0.58578 z m -261.49076,1.30051 c -0.90201,0.2406 -1.80397,0.48134 -2.70587,0.72222 1.07532,4.05844 2.14925,8.11708 3.22175,12.17594 -2.84658,0.77743 -5.69263,1.55625 -8.53818,2.33641 -1.00848,-3.8055 -2.01816,-7.61081 -3.02903,-11.41595 -0.89081,0.25205 -1.78157,0.50424 -2.67227,0.75655 1.01171,3.79426 2.02225,7.58869 3.0316,11.38331 -2.32808,0.63227 -4.65585,1.26543 -6.98332,1.89943 -1.05763,-3.96196 -2.11651,-7.92372 -3.17663,-11.88529 -0.89071,0.24241 -1.78138,0.48494 -2.67199,0.7276 1.34687,5.04361 2.69177,10.08753 4.03466,15.13177 7.8478,-2.14508 15.69876,-4.28057 23.55364,-6.40528 -1.35249,-5.14258 -2.70729,-10.28481 -4.06436,-15.42671 0,0 0,0 0,0 z m 246.97671,20.44073 c -0.45817,1.01471 -0.91602,2.0295 -1.37356,3.04436 3.10779,1.45707 6.212,2.91766 9.31253,4.38186 -0.50275,1.0973 -1.00511,2.19469 -1.5071,3.29217 -0.54304,1.20606 -1.21961,2.05179 -2.01134,2.51897 -0.79626,0.4772 -2.08078,0.74164 -3.88426,0.79397 -2.31054,0.0826 -4.62113,0.16709 -6.93177,0.25355 -0.48778,1.08869 -0.9752,2.17747 -1.46227,3.26633 2.46354,-0.0945 4.927,-0.18676 7.39039,-0.27682 1.51301,-0.0427 2.76609,-0.22191 3.75061,-0.51265 0.98001,-0.28073 1.71558,-0.69384 2.22463,-1.24543 -0.21241,1.42294 6.2e-4,2.67459 0.6165,3.75815 0.61134,1.0936 1.58091,1.95969 2.95819,2.61306 2.10986,1.00082 3.98947,1.13925 5.60494,0.37136 1.61543,-0.76795 2.98746,-2.45372 4.15196,-5.02307 1.04262,-2.28606 2.0869,-4.57172 3.13286,-6.85697 -7.30332,-3.47997 -14.62786,-6.9393 -21.97231,-10.37884 0,0 0,0 0,0 z m -238.11692,7.10155 c -8.67398,0.58235 -17.34927,1.17814 -26.02599,1.78586 0.48129,1.05698 0.96241,2.114 1.44337,3.17107 7.28249,-0.54351 14.56393,-1.07857 21.8444,-1.60428 -5.12898,5.28261 -10.24932,10.56978 -15.36196,15.86113 0.47944,1.05741 0.95871,2.11487 1.43781,3.17237 6.05345,-6.31518 12.11778,-12.62448 18.19457,-18.92724 -0.51052,-1.15302 -1.02125,-2.30599 -1.5322,-3.45891 z m 248.47237,1.46554 c 2.59912,1.23098 5.19563,2.46451 7.78947,3.70062 -0.58204,1.2736 -1.16356,2.54733 -1.74457,3.82118 -0.66343,1.46572 -1.46594,2.41898 -2.45601,2.85086 -0.98486,0.44654 -2.14017,0.35751 -3.42053,-0.24993 -1.28039,-0.60748 -2.08024,-1.43624 -2.40622,-2.50479 -0.32073,-1.05391 -0.13129,-2.32558 0.52994,-3.79259 0.56881,-1.27523 1.13811,-2.55035 1.70792,-3.82535 0,0 0,0 0,0 z m -20.54616,12.64469 c -2.92293,4.39924 -5.83729,8.80152 -8.74334,13.20679 0.74932,0.52177 1.49833,1.04373 2.24703,1.5659 2.30425,-3.47477 4.61371,-6.94765 6.92853,-10.41862 2.40036,1.68974 4.7975,3.38157 7.19135,5.07552 -2.15865,3.2486 -4.31258,6.49889 -6.46188,9.75084 0.74671,0.52355 1.49311,1.04731 2.23918,1.57127 2.14988,-3.24022 4.30439,-6.47877 6.46362,-9.71563 1.95804,1.37843 3.91387,2.75827 5.86745,4.13957 -2.25733,3.37931 -4.50944,6.76051 -6.75645,10.14356 0.74408,0.53555 1.48783,1.0713 2.23125,1.60726 2.86284,-4.30791 5.73398,-8.6128 8.61366,-12.91461 -6.58147,-4.68693 -13.18876,-9.35734 -19.8204,-14.01185 0,0 0,0 0,0 z m -220.29109,0.84048 c -6.8854,4.35762 -13.76209,8.72393 -20.63143,13.09803 0.57941,0.93927 1.15862,1.87859 1.73763,2.81798 6.86768,-4.36218 13.74263,-8.71649 20.62623,-13.06206 -0.57726,-0.95138 -1.15474,-1.9027 -1.73243,-2.85395 z m 8.52844,12.72154 c -5.61058,4.54989 -11.21325,9.10576 -16.80896,13.6671 -1.79282,-2.30106 -3.5873,-4.60155 -5.38341,-6.90146 -0.72284,0.58561 -1.44557,1.17132 -2.16819,1.75711 4.27321,5.46241 8.53731,10.92803 12.79164,16.39699 0.72159,-0.5847 1.4433,-1.1693 2.16512,-1.75382 -1.78792,-2.29212 -3.57757,-4.58365 -5.3689,-6.87459 5.59445,-4.55998 11.19586,-9.11443 16.80519,-13.66286 -0.67724,-0.87624 -1.35474,-1.7524 -2.03249,-2.62847 z m 201.56503,1.67848 c -0.78525,0.85203 -1.57008,1.70428 -2.35449,2.55674 0.99873,2.00558 1.99595,4.0115 2.99164,6.01779 -2.47733,2.71189 -4.9504,5.42596 -7.41932,8.14216 -1.98719,-0.91175 -3.97594,-1.82212 -5.96621,-2.73113 -0.77049,0.85452 -1.54057,1.70923 -2.31026,2.56415 7.91244,3.34569 15.80214,6.71286 23.66757,10.10264 0.83441,-0.9233 1.66931,-1.84635 2.50472,-2.76914 -3.68148,-7.96607 -7.3863,-15.92711 -11.11365,-23.88321 z m -195.93759,6.18469 c -3.18825,8.20493 -6.3665,16.41181 -9.53538,24.62052 0.91246,0.86085 1.82455,1.72187 2.73627,2.58304 7.69681,-3.95406 15.39992,-7.89695 23.11085,-11.82746 -0.84648,-0.80146 -1.69329,-1.60277 -2.54045,-2.40394 -1.93238,1.05473 -3.86421,2.11021 -5.79552,3.16645 -2.6791,-2.52618 -5.36149,-5.05092 -8.04706,-7.57425 0.86293,-2.06559 1.72653,-4.13103 2.59081,-6.19633 -0.83953,-0.78948 -1.67937,-1.57883 -2.51952,-2.36803 z m 197.8745,5.04696 c 1.87805,3.9159 3.75044,7.83307 5.61706,11.75152 -3.89048,-1.71934 -7.78695,-3.43317 -11.68924,-5.14162 2.02126,-2.20475 4.0453,-4.40805 6.07218,-6.6099 z m -199.01355,6.26313 c 2.18178,2.05585 4.36145,4.11263 6.53896,6.17035 -3.80181,1.99655 -7.60177,3.99598 -11.40007,5.99813 1.61796,-4.05665 3.2383,-8.11281 4.86111,-12.16848 z m 176.93574,2.6898 c -0.85796,0.69598 -1.71557,1.39221 -2.57285,2.08869 4.35396,5.75674 8.68928,11.51985 13.00517,17.28949 -2.22608,1.80206 -4.44985,3.60586 -6.67137,5.41136 0.54747,0.73766 1.09463,1.47542 1.64147,2.21328 5.30513,-4.29352 10.62304,-8.57727 15.95457,-12.85083 -0.55545,-0.74012 -1.11122,-1.48012 -1.66732,-2.22001 -2.23258,1.7972 -4.46277,3.59617 -6.69062,5.39689 -4.31374,-5.78281 -8.64703,-11.55904 -12.99905,-17.32887 0,0 0,0 0,0 z m -157.48548,2.83745 c -0.50356,0.7896 -1.00697,1.57926 -1.51023,2.36897 3.42225,2.31752 6.84019,4.63747 10.25365,6.95995 -1.61187,2.49514 -3.22219,4.99084 -4.83101,7.4871 -3.18445,-2.17531 -6.37284,-4.34847 -9.56499,-6.51954 -0.50235,0.79 -1.00455,1.58005 -1.50662,2.37015 3.19172,2.15984 6.37968,4.32176 9.56373,6.48583 -1.30627,2.03773 -2.61156,4.07583 -3.91588,6.11428 -3.32849,-2.25532 -6.66126,-4.50832 -9.99812,-6.75909 -0.50149,0.77983 -1.00285,1.55971 -1.50407,2.33964 4.2411,2.86962 8.47557,5.74283 12.70304,8.61978 4.41293,-6.88319 8.83684,-13.7623 13.2727,-20.63705 -4.31359,-2.94737 -8.63445,-5.89066 -12.9622,-8.83002 z m 145.36276,6.10707 c -0.92504,0.58123 -1.84979,1.16274 -2.77427,1.74453 4.15592,7.04262 8.29087,14.09087 12.40394,21.14485 0.92109,-0.57924 1.84245,-1.1582 2.76409,-1.73687 -4.10957,-7.05657 -8.24112,-14.10737 -12.39376,-21.15251 z m -128.79541,5.05656 c 0.13338,2.52485 0.26663,5.0497 0.39977,7.57456 0.0714,1.55225 0.26709,2.82599 0.56934,3.83039 0.29243,0.99998 0.71196,1.75779 1.25741,2.26828 -1.3841,-0.18731 -2.58306,0.0533 -3.62052,0.70998 -1.04725,0.65228 -1.88066,1.67655 -2.48273,3.10749 -0.92226,2.19205 -0.98567,4.13274 -0.20291,5.77444 0.78281,1.64165 2.41975,3.02525 4.93419,4.15629 2.24248,1.00878 4.48336,2.01868 6.72261,3.02974 3.18703,-7.57245 6.38428,-15.14253 9.59232,-22.71012 -0.98818,-0.44506 -1.97667,-0.8899 -2.96547,-1.33451 -1.36269,3.19546 -2.72347,6.39136 -4.08237,9.5877 -1.08051,-0.48527 -2.16138,-0.97028 -3.24261,-1.45501 -1.1799,-0.53125 -1.98251,-1.19951 -2.45154,-2.00175 -0.47883,-0.80664 -0.76,-2.1372 -0.84588,-3.98598 -0.11979,-2.3665 -0.23969,-4.73299 -0.35969,-7.09948 -1.07363,-0.48427 -2.1476,-0.96827 -3.22192,-1.45202 z m 114.8866,2.82625 c -1.11562,0.51896 -2.23098,1.03831 -3.3461,1.55806 0.52132,8.81907 1.03932,17.63821 1.55399,26.45742 1.01744,-0.47788 2.03507,-0.95542 3.0529,-1.43262 -0.45064,-7.41326 -0.90376,-14.82646 -1.35935,-22.23961 5.05728,5.25389 10.09503,10.5159 15.11225,15.78627 1.01963,-0.47412 2.03946,-0.9479 3.0595,-1.42133 -5.9957,-6.24797 -12.02066,-12.48388 -18.07319,-18.70819 0,0 0,0 0,0 z m -15.05761,6.3638 c -4.95975,1.33671 -9.91788,2.68099 -14.87463,4.03252 0.23211,0.90954 0.46409,1.81909 0.69593,2.72865 3.91431,-1.06813 7.82945,-2.13173 11.74554,-3.19064 0.72892,2.8996 1.45647,5.79936 2.18264,8.69927 -3.6647,0.98452 -7.32866,1.97317 -10.99196,2.96584 0.23087,0.90969 0.46161,1.8194 0.69222,2.72912 3.66126,-0.99217 7.32316,-1.98032 10.98576,-2.96433 0.58611,2.36021 1.17131,4.72051 1.7556,7.08092 -3.80961,1.03466 -7.61848,2.07384 -11.42673,3.11739 0.23001,0.90978 0.45988,1.81957 0.68961,2.72938 4.84135,-1.32461 9.68367,-2.64214 14.52716,-3.95229 -1.98314,-7.99313 -3.97693,-15.98507 -5.98114,-23.97583 0,0 0,0 0,0 z m -73.35469,1.25938 c -0.33349,-0.004 -0.68345,0.0175 -1.01332,0.04 -1.32988,0.0874 -2.64262,0.38093 -3.92456,0.88987 -0.25629,1.13333 -0.51243,2.26667 -0.76844,3.40003 1.29543,-0.767 2.62362,-1.24768 3.94847,-1.46138 1.31444,-0.21622 2.63687,-0.13909 3.99253,0.1898 2.66967,0.64766 4.51688,1.96138 5.55079,3.98688 1.03147,2.03627 1.20376,4.65213 0.48118,7.82928 -0.72503,3.18788 -1.98464,5.44535 -3.77889,6.78116 -1.79666,1.34654 -4.03083,1.71364 -6.6933,1.06799 -1.35201,-0.3279 -2.57518,-0.91618 -3.65813,-1.71197 -1.09332,-0.79834 -2.04531,-1.83273 -2.87777,-3.11268 -0.26494,1.15472 -0.52972,2.30947 -0.79437,3.46423 0.91112,1.02619 1.96326,1.86281 3.11647,2.53928 1.14043,0.68469 2.41504,1.18217 3.8081,1.52008 3.52432,0.85475 6.54057,0.43779 9.07403,-1.30778 2.53105,-1.73483 4.23177,-4.56064 5.11539,-8.43729 0.88116,-3.86592 0.5704,-7.15163 -0.94918,-9.88774 -1.52204,-2.72534 -4.04889,-4.51155 -7.58532,-5.36967 -1.03276,-0.25059 -2.04321,-0.40804 -3.04368,-0.42007 0,0 0,0 0,0 z m -24.03337,5.75829 c 0.83995,-0.0773 1.78922,0.1481 2.86575,0.6326 1.25606,0.55647 2.51162,1.1133 3.76669,1.6705 -1.13818,2.68678 -2.27506,5.37386 -3.41065,8.06124 -1.24392,-0.55665 -2.48833,-1.11295 -3.73323,-1.6689 -1.43433,-0.64528 -2.38347,-1.49615 -2.82495,-2.50269 -0.45554,-1.00085 -0.38751,-2.16141 0.17218,-3.49057 0.55974,-1.32921 1.33832,-2.17571 2.36694,-2.53411 0.25363,-0.0882 0.51728,-0.1423 0.79727,-0.16807 0,0 0,0 0,0 z m 60.46758,6.83834 c -1.33317,0.0214 -2.45706,0.49893 -3.35952,1.4657 -0.90243,0.96677 -1.35785,2.17186 -1.33608,3.55485 0.0217,1.37189 0.5129,2.49578 1.44348,3.42094 0.92013,0.93637 2.03978,1.40935 3.35989,1.38816 1.3414,-0.0216 2.47216,-0.52956 3.38484,-1.49534 0.9022,-0.95457 1.32849,-2.11743 1.3093,-3.48934 -0.0194,-1.383 -0.47763,-2.54917 -1.40797,-3.48651 -0.93033,-0.93736 -2.06075,-1.37986 -3.39394,-1.35846 0,0 0,0 0,0 z"
           style="font-size:33.50000000000000000px;font-style:normal;font-variant:normal;font-weight:normal;font-stretch:normal;text-align:start;line-height:100%;letter-spacing:0px;word-spacing:0px;writing-mode:lr-tb;text-anchor:start;fill:#c3000a;fill-opacity:1;stroke:#ffffff;stroke-width:1.00893545000000007;stroke-opacity:1;font-family:Sans;-inkscape-font-specification:Sans"
           inkscape:label="" />
        <text
           inkscape:transform-center-x="-1.3320685e-05"
           inkscape:transform-center-y="5.7990875"
           transform="matrix(1.0431864,-0.05277485,0.0519116,1.0576253,-36.973299,-2.3290298)"
           sodipodi:linespacing="100%"
           id="inner-circle-text"
           style="font-size:23.77792739999999938px;font-style:normal;font-variant:normal;font-weight:normal;font-stretch:normal;text-align:start;line-height:100%;letter-spacing:0px;word-spacing:0px;writing-mode:lr-tb;text-anchor:start;fill:#ffffff;fill-opacity:1;stroke:#c3000a;stroke-opacity:1;font-family:Sans;-inkscape-font-specification:Sans"
           xml:space="preserve"
           inkscape:label=""><textPath
             id="textPath3884"
             xlink:href="#path4009"> INDUSTRIES INDUSTRIES INDUSTRIES INDUSTRIES</textPath></text>
      </g>
    </g>
  </g>
</svg>
